<svg width="32" height="33" viewBox="0 0 32 33" fill="none" xmlns="http://www.w3.org/2000/svg">
<g id="&#240;&#159;&#166;&#134; icon &#34;shopping cart&#34;">
<g id="Group">
<path id="Vector" d="M5.22105 21.3696C5.0062 23.8711 6.98589 26.0196 9.50271 26.0196H25.8466C28.0565 26.0196 29.9901 24.2087 30.159 22.0141L30.9877 10.5043C31.1718 7.95679 29.2382 5.88501 26.6753 5.88501H6.86314" stroke="black" stroke-width="1.39785" stroke-miterlimit="10" stroke-linecap="round" stroke-linejoin="round"/>
<path id="Vector_2" d="M1 1H3.6703C5.32771 1 6.63214 2.42722 6.49403 4.06929L5.7267 13.3539" stroke="black" stroke-width="1.39785" stroke-miterlimit="10" stroke-linecap="round" stroke-linejoin="round"/>
<path id="Vector_3" d="M22.8687 31.6929C23.9283 31.6929 24.787 30.8341 24.787 29.7746C24.787 28.7151 23.9283 27.8563 22.8687 27.8563C21.8092 27.8563 20.9504 28.7151 20.9504 29.7746C20.9504 30.8341 21.8092 31.6929 22.8687 31.6929Z" stroke="black" stroke-width="1.39785" stroke-miterlimit="10" stroke-linecap="round" stroke-linejoin="round"/>
<path id="Vector_4" d="M10.5916 31.6929C11.6511 31.6929 12.51 30.8341 12.51 29.7746C12.51 28.7151 11.6511 27.8563 10.5916 27.8563C9.53219 27.8563 8.67334 28.7151 8.67334 29.7746C8.67334 30.8341 9.53219 31.6929 10.5916 31.6929Z" stroke="black" stroke-width="1.39785" stroke-miterlimit="10" stroke-linecap="round" stroke-linejoin="round"/>
<path id="Vector_5" d="M11.7424 10.2076H30.1582" stroke="black" stroke-width="1.39785" stroke-miterlimit="10" stroke-linecap="round" stroke-linejoin="round"/>
</g>
</g>
</svg>
