<svg width="32" height="32" viewBox="0 0 32 32" fill="none" xmlns="http://www.w3.org/2000/svg">
<g id="&#240;&#159;&#166;&#134; icon &#34;instagram&#34;">
<g id="Group">
<path id="Vector" d="M20.4651 32H11.5349C3.45302 32 0 28.547 0 20.4651V11.5349C0 3.45302 3.45302 0 11.5349 0H20.4651C28.547 0 32 3.45302 32 11.5349V20.4651C32 28.547 28.547 32 20.4651 32ZM11.5349 2.23256C4.67349 2.23256 2.23256 4.67349 2.23256 11.5349V20.4651C2.23256 27.3265 4.67349 29.7674 11.5349 29.7674H20.4651C27.3265 29.7674 29.7674 27.3265 29.7674 20.4651V11.5349C29.7674 4.67349 27.3265 2.23256 20.4651 2.23256H11.5349Z" fill="#33CAFF"/>
<path id="Vector_2" d="M15.9999 22.3256C12.5171 22.3256 9.67432 19.4828 9.67432 16C9.67432 12.5172 12.5171 9.67441 15.9999 9.67441C19.4827 9.67441 22.3255 12.5172 22.3255 16C22.3255 19.4828 19.4827 22.3256 15.9999 22.3256ZM15.9999 11.907C13.7376 11.907 11.9069 13.7377 11.9069 16C11.9069 18.2623 13.7376 20.093 15.9999 20.093C18.2622 20.093 20.0929 18.2623 20.0929 16C20.0929 13.7377 18.2622 11.907 15.9999 11.907Z" fill="#33CAFF"/>
<path id="Vector_3" d="M23.4417 9.30218C23.2483 9.30218 23.0548 9.25753 22.8762 9.18311C22.6976 9.10869 22.5338 9.00451 22.385 8.87055C22.251 8.72172 22.132 8.558 22.0576 8.37939C21.9831 8.20079 21.9534 8.0073 21.9534 7.81381C21.9534 7.62032 21.9831 7.42683 22.0576 7.24823C22.1469 7.05474 22.251 6.9059 22.385 6.75707C22.4594 6.69753 22.5338 6.62311 22.6083 6.57846C22.6976 6.51893 22.7869 6.47428 22.8762 6.44451C22.9655 6.39986 23.0548 6.37009 23.1589 6.35521C23.6352 6.25102 24.1413 6.41474 24.4985 6.75707C24.6324 6.9059 24.7366 7.05474 24.811 7.24823C24.8855 7.42683 24.9301 7.62032 24.9301 7.81381C24.9301 8.0073 24.8855 8.20079 24.811 8.37939C24.7366 8.558 24.6324 8.72172 24.4985 8.87055C24.3496 9.00451 24.1859 9.10869 24.0073 9.18311C23.8287 9.25753 23.6352 9.30218 23.4417 9.30218Z" fill="#33CAFF"/>
</g>
</g>
</svg>
